<?xml version="1.0" encoding="utf-8"?>
<!-- Generator: Adobe Illustrator 22.1.0, SVG Export Plug-In . SVG Version: 6.00 Build 0)  -->
<svg version="1.1" id="图层_1" xmlns="http://www.w3.org/2000/svg" xmlns:xlink="http://www.w3.org/1999/xlink" x="0px" y="0px"
	 viewBox="0 0 48 48" style="enable-background:new 0 0 48 48;" xml:space="preserve">
<style type="text/css">
	.st0{fill:#ACACAC;}
</style>
<path class="st0" d="M11.9,43.5c-0.7,0-1.4-0.3-2-0.8s-0.8-1.2-0.8-1.9V20.6c0-0.7,0.3-1.4,0.8-2c0.6-0.6,1.2-0.8,2-0.8h3.3v-4.5
	c0-2.4,0.8-4.6,2.6-6.2c1.8-1.7,3.8-2.6,6.2-2.6s4.5,0.8,6.2,2.6c1.7,1.8,2.6,3.8,2.6,6.2v4.5h3.3c0.7,0,1.4,0.3,1.9,0.8
	c0.6,0.6,0.8,1.2,0.8,2v20.2c0,0.7-0.3,1.4-0.8,1.9s-1.2,0.8-1.9,0.8H11.9z M24,34.2c1,0,1.9-0.4,2.5-1c0.7-0.6,1-1.5,1-2.4
	s-0.4-1.8-1-2.5c-0.6-0.7-1.6-1.1-2.5-1.1s-1.9,0.4-2.5,1.1c-0.7,0.7-1,1.6-1,2.5s0.4,1.8,1,2.5C22.1,34,23,34.2,24,34.2z M18,17.8
	H30v-4.5c0-1.7-0.6-3.1-1.8-4.3S25.7,7.3,24,7.3s-3.1,0.6-4.3,1.8S18,11.6,18,13.3V17.8z"/>
</svg>
