<?xml version="1.0" encoding="utf-8"?>
<!-- Generator: Adobe Illustrator 22.1.0, SVG Export Plug-In . SVG Version: 6.00 Build 0)  -->
<svg version="1.1" id="图层_1" xmlns="http://www.w3.org/2000/svg" xmlns:xlink="http://www.w3.org/1999/xlink" x="0px" y="0px"
	 viewBox="0 0 48 48" style="enable-background:new 0 0 48 48;" xml:space="preserve">
<style type="text/css">
	.st0{fill:#ACACAC;}
</style>
<path class="st0" d="M8.4,38.8c-0.7,0-1.4-0.3-1.9-0.8c-0.6-0.6-0.8-1.2-0.8-1.9V12.2c0-0.7,0.3-1.4,0.8-1.9C7,9.7,7.7,9.5,8.4,9.5
	h31.2c0.7,0,1.4,0.3,1.9,0.8s0.8,1.2,0.8,1.9V36c0,0.7-0.3,1.4-0.8,1.9c-0.6,0.6-1.2,0.8-1.9,0.8H8.4z M24,24.7c0.2,0,0.3,0,0.4-0.1
	c0.1,0,0.2-0.1,0.3-0.2L39.1,15c0.2-0.1,0.3-0.2,0.3-0.4c0.1-0.2,0.1-0.3,0.1-0.5c0-0.4-0.2-0.7-0.5-0.9c-0.4-0.2-0.7-0.2-1.1,0
	l-14,8.9l-13.9-8.9C9.7,13,9.3,13,9,13.2s-0.6,0.5-0.6,0.9c0,0.2,0,0.4,0.1,0.5S8.7,15,8.9,15l14.4,9.4c0.1,0.1,0.2,0.1,0.3,0.2
	C23.7,24.7,23.8,24.7,24,24.7z"/>
</svg>
